<?xml version="1.0" encoding="UTF-8"?>
<svg id="Layer_2" data-name="Layer 2" xmlns="http://www.w3.org/2000/svg" viewBox="0 0 15.68 15.68">
  <defs>
    <style>
      .cls-1 {
        fill: none;
        stroke: #0071bc;
        stroke-miterlimit: 10;
        stroke-width: .73px;
      }
    </style>
  </defs>
  <g id="Layer_1-2" data-name="Layer 1">
    <g>
      <path class="cls-1" d="M10.82,3.34v1.09l-3.26,3.26c-.12.12-.12.31,0,.43.12.12.31.12.43,0,0,0,0,0,0,0l3.26-3.26h1.09c.08,0,.16-.03.21-.09l2.66-2.66c.12-.12.12-.31,0-.43-.06-.06-.13-.09-.21-.09h-.91v-.91c0-.17-.14-.3-.3-.3-.08,0-.16.03-.21.09l-2.66,2.66c-.06.06-.09.13-.09.21Z"/>
      <path class="cls-1" d="M14.43,4.32l-1.12,1.12c1.33,3.02-.05,6.55-3.07,7.88-3.02,1.33-6.55-.05-7.88-3.07-1.33-3.02.05-6.55,3.07-7.88,1.53-.67,3.27-.67,4.8,0l1.12-1.12C7.71-.69,3.19.68,1.25,4.32c-1.94,3.64-.57,8.16,3.07,10.11,3.64,1.94,8.16.57,10.11-3.07,1.17-2.2,1.17-4.83,0-7.03Z"/>
      <path class="cls-1" d="M9.36,3.75c-2.26-.85-4.79.3-5.63,2.57-.85,2.26.3,4.79,2.57,5.63,2.26.85,4.79-.3,5.63-2.57.37-.99.37-2.08,0-3.07-.27-.3-1.23.27-1.23.27.69,1.58-.02,3.42-1.6,4.12-1.58.69-3.42-.02-4.12-1.6-.69-1.58.02-3.42,1.6-4.12,1.35-.61,2.51,0,2.51,0,0,0,.52-.82.27-1.23Z"/>
    </g>
  </g>
</svg>