<?xml version="1.0" encoding="UTF-8"?>
<svg id="Layer_2" data-name="Layer 2" xmlns="http://www.w3.org/2000/svg" viewBox="0 0 133.14 48.34">
  <defs>
    <style>
      .cls-1 {
        fill: #fff;
      }

      .cls-2 {
        fill: #ccc;
      }
    </style>
  </defs>
  <g id="Layer_1-2" data-name="Layer 1">
    <g>
      <g>
        <path class="cls-1" d="M52.48,28.15h-14.84V12.03h14.84c4.05,0,8.06,2.35,8.06,8.06s-4.01,8.06-8.06,8.06ZM54.23,20.09c0-1.92-.81-2.94-2.61-2.94h-7.01v5.88h7.01c1.8,0,2.61-1.02,2.61-2.94Z"/>
        <path class="cls-1" d="M70.13,11.7h7.68c3.72,0,7.39,2.3,7.96,7.06h-6.45c-.43-1.14-1.35-1.97-2.65-1.97h-5.4c-1.8,0-2.89.92-2.89,3.29s1.09,3.29,2.89,3.29h5.4c1.3,0,2.23-.81,2.65-1.97h6.45c-.57,4.76-4.24,7.09-7.96,7.09h-7.68c-4.05,0-8.06-2.68-8.06-8.41s4.01-8.39,8.06-8.39Z"/>
        <path class="cls-1" d="M84.87,28.15l8.25-16.12h8.79l8.25,16.12h-7.25l-1.18-2.3h-8.41l-1.18,2.3h-7.25ZM95.33,21.21h4.38l-2.18-4.79-2.2,4.79Z"/>
        <path class="cls-1" d="M117.89,12.03v6.16h8.01v-6.16h6.97v16.12h-6.97v-6.09h-8.01v6.09h-6.97V12.03h6.97Z"/>
      </g>
      <g>
        <path class="cls-1" d="M37.73,30.42h1.61c.65,0,1.16.19,1.51.57.36.38.53.96.53,1.73s-.18,1.35-.53,1.73c-.36.38-.86.57-1.51.57h-1.61v-4.6ZM39.34,34.67c.5,0,.89-.15,1.16-.44.28-.29.41-.7.41-1.21v-.61c0-.51-.14-.92-.41-1.21-.28-.29-.66-.44-1.16-.44h-1.18v3.9h1.18Z"/>
        <path class="cls-1" d="M45.03,35.02c-.16,0-.28-.04-.35-.11s-.11-.18-.12-.3v-.12h-.04c-.08.19-.22.34-.41.45-.19.11-.43.16-.72.16-.39,0-.69-.09-.91-.26-.21-.17-.32-.42-.32-.74,0-.3.12-.54.35-.71.23-.18.62-.26,1.16-.26h.86v-.4c0-.56-.32-.84-.95-.84-.25,0-.45.05-.62.14-.16.09-.3.23-.4.41l-.26-.2c.1-.2.26-.36.47-.48.21-.13.48-.19.82-.19.44,0,.77.1,1,.3s.35.48.35.83v2h.5v.32h-.42ZM43.46,34.78c.15,0,.29-.02.42-.05.13-.04.25-.09.34-.15.1-.06.18-.14.23-.23.06-.09.08-.19.08-.31v-.63h-.87c-.37,0-.64.05-.81.16s-.25.26-.25.45v.16c0,.2.08.35.23.45.15.1.36.15.62.15Z"/>
        <path class="cls-1" d="M46.92,35.02c-.15,0-.26-.04-.34-.11s-.12-.18-.12-.3v-2.64h-.65v-.32h.42c.1,0,.17-.02.21-.06.04-.04.05-.1.05-.2v-.69h.38v.94h.84v.32h-.84v2.73h.78v.32h-.74Z"/>
        <path class="cls-1" d="M51.23,35.02c-.16,0-.28-.04-.35-.11s-.11-.18-.12-.3v-.12h-.04c-.08.19-.22.34-.41.45-.19.11-.43.16-.72.16-.39,0-.69-.09-.91-.26-.21-.17-.32-.42-.32-.74,0-.3.12-.54.35-.71.23-.18.62-.26,1.16-.26h.86v-.4c0-.56-.32-.84-.95-.84-.25,0-.45.05-.62.14-.16.09-.3.23-.4.41l-.26-.2c.1-.2.26-.36.47-.48.21-.13.48-.19.82-.19.44,0,.77.1,1,.3s.35.48.35.83v2h.5v.32h-.42ZM49.65,34.78c.15,0,.29-.02.42-.05.13-.04.25-.09.34-.15.1-.06.18-.14.23-.23.06-.09.08-.19.08-.31v-.63h-.87c-.37,0-.64.05-.81.16s-.25.26-.25.45v.16c0,.2.08.35.23.45.15.1.36.15.62.15Z"/>
        <path class="cls-1" d="M55.73,35.1c-.63,0-1.11-.2-1.46-.6-.34-.4-.52-.99-.52-1.77s.17-1.37.52-1.78.83-.61,1.46-.61c.41,0,.75.09,1.03.26.28.17.49.41.65.72l-.36.19c-.11-.25-.28-.45-.5-.6-.23-.15-.5-.22-.82-.22-.47,0-.84.15-1.11.46-.27.31-.4.75-.4,1.32v.52c0,.57.13,1,.4,1.3s.64.45,1.11.45c.34,0,.62-.08.85-.23.23-.16.4-.37.51-.63l.36.19c-.15.32-.37.57-.66.75-.29.18-.64.27-1.05.27Z"/>
        <path class="cls-1" d="M59.74,35.1c-.25,0-.47-.04-.67-.12-.2-.08-.37-.19-.52-.35s-.25-.34-.33-.56-.11-.47-.11-.75.04-.52.11-.74.18-.4.33-.55c.14-.15.31-.27.51-.35.2-.08.42-.12.67-.12s.45.04.65.12.36.2.49.34c.14.15.24.32.32.53s.11.43.11.68v.18h-2.75v.16c0,.18.03.34.08.49s.14.27.24.38c.1.11.23.19.38.25.15.06.32.09.51.09.54,0,.92-.23,1.12-.68l.3.18c-.12.25-.3.45-.55.6-.25.15-.55.22-.9.22ZM59.73,31.89c-.18,0-.34.03-.49.09-.15.06-.27.14-.37.25-.1.11-.18.23-.24.38s-.08.31-.08.48v.03h2.3v-.05c0-.18-.03-.34-.08-.48s-.13-.27-.23-.37c-.1-.1-.22-.18-.36-.24-.14-.06-.29-.09-.45-.09Z"/>
        <path class="cls-1" d="M62.32,35.02v-3.38h.41v.53h.02c.08-.18.21-.32.38-.44s.41-.18.71-.18c.4,0,.7.11.93.33.22.22.33.54.33.95v2.17h-.41v-2.1c0-.34-.08-.6-.24-.77-.16-.17-.4-.25-.71-.25-.13,0-.26.02-.38.05-.12.03-.23.08-.32.14s-.17.14-.22.23c-.06.09-.08.2-.08.33v2.37h-.41Z"/>
        <path class="cls-1" d="M67,35.02c-.15,0-.26-.04-.34-.11s-.12-.18-.12-.3v-2.64h-.65v-.32h.42c.1,0,.17-.02.21-.06.04-.04.05-.1.05-.2v-.69h.38v.94h.84v.32h-.84v2.73h.78v.32h-.74Z"/>
        <path class="cls-1" d="M70.06,35.1c-.25,0-.47-.04-.67-.12-.2-.08-.37-.19-.52-.35s-.25-.34-.33-.56-.11-.47-.11-.75.04-.52.11-.74.18-.4.33-.55c.14-.15.31-.27.51-.35.2-.08.42-.12.67-.12s.45.04.65.12.36.2.49.34c.14.15.24.32.32.53s.11.43.11.68v.18h-2.75v.16c0,.18.03.34.08.49s.14.27.24.38c.1.11.23.19.38.25.15.06.32.09.51.09.54,0,.92-.23,1.12-.68l.3.18c-.12.25-.3.45-.55.6-.25.15-.55.22-.9.22ZM70.05,31.89c-.18,0-.34.03-.49.09-.15.06-.27.14-.37.25-.1.11-.18.23-.24.38s-.08.31-.08.48v.03h2.3v-.05c0-.18-.03-.34-.08-.48s-.13-.27-.23-.37c-.1-.1-.22-.18-.36-.24-.14-.06-.29-.09-.45-.09Z"/>
        <path class="cls-1" d="M72.63,35.02v-3.38h.41v.61h.03c.07-.16.2-.3.37-.42.17-.12.42-.18.74-.18h.25v.37h-.33c-.31,0-.56.06-.76.18-.2.12-.3.29-.3.51v2.31h-.41Z"/>
        <path class="cls-1" d="M79.91,35.02l-.55-1.43h-2.16l-.55,1.43h-.44l1.79-4.6h.56l1.8,4.6h-.46ZM78.29,30.8h-.03l-.95,2.45h1.93l-.95-2.45Z"/>
        <path class="cls-1" d="M82.5,35.1c-.51,0-.91-.15-1.19-.46-.28-.31-.42-.74-.42-1.31s.14-1,.42-1.31c.28-.31.67-.46,1.19-.46.34,0,.62.07.83.2s.37.32.49.54l-.35.16c-.09-.19-.21-.33-.37-.42s-.36-.15-.61-.15c-.38,0-.67.11-.86.33-.2.22-.3.51-.3.86v.48c0,.36.1.64.3.86.2.22.49.33.86.33.26,0,.47-.05.65-.15.17-.1.31-.25.42-.44l.3.19c-.12.22-.29.4-.52.54-.22.13-.51.2-.85.2Z"/>
        <path class="cls-1" d="M86.01,35.1c-.51,0-.91-.15-1.19-.46-.28-.31-.42-.74-.42-1.31s.14-1,.42-1.31c.28-.31.67-.46,1.19-.46.34,0,.62.07.83.2s.37.32.49.54l-.35.16c-.09-.19-.21-.33-.37-.42s-.36-.15-.61-.15c-.38,0-.67.11-.86.33-.2.22-.3.51-.3.86v.48c0,.36.1.64.3.86.2.22.49.33.86.33.26,0,.47-.05.65-.15.17-.1.31-.25.42-.44l.3.19c-.12.22-.29.4-.52.54-.22.13-.51.2-.85.2Z"/>
        <path class="cls-1" d="M89.53,35.1c-.25,0-.47-.04-.67-.12-.2-.08-.37-.19-.52-.35s-.25-.34-.33-.56-.11-.47-.11-.75.04-.52.11-.74.18-.4.33-.55c.14-.15.31-.27.51-.35.2-.08.42-.12.67-.12s.45.04.65.12.36.2.49.34c.14.15.24.32.32.53s.11.43.11.68v.18h-2.75v.16c0,.18.03.34.08.49s.14.27.24.38c.1.11.23.19.38.25.15.06.32.09.51.09.54,0,.92-.23,1.12-.68l.3.18c-.12.25-.3.45-.55.6-.25.15-.55.22-.9.22ZM89.53,31.89c-.18,0-.34.03-.49.09-.15.06-.27.14-.37.25-.1.11-.18.23-.24.38s-.08.31-.08.48v.03h2.3v-.05c0-.18-.03-.34-.08-.48s-.13-.27-.23-.37c-.1-.1-.22-.18-.36-.24-.14-.06-.29-.09-.45-.09Z"/>
        <path class="cls-1" d="M93.16,35.1c-.32,0-.6-.05-.83-.16s-.43-.27-.6-.48l.3-.22c.15.19.32.32.51.41s.4.13.65.13c.29,0,.51-.06.66-.16.15-.11.23-.27.23-.48,0-.18-.06-.32-.18-.43-.12-.1-.31-.17-.58-.21l-.3-.05c-.17-.02-.32-.05-.46-.1-.14-.04-.26-.1-.36-.18s-.18-.17-.23-.27c-.06-.11-.08-.24-.08-.39s.03-.3.1-.42c.07-.12.15-.22.26-.3.11-.08.24-.14.4-.18.15-.04.32-.06.5-.06.31,0,.56.05.76.15.2.1.37.22.51.38l-.28.23c-.1-.11-.23-.2-.39-.29-.16-.09-.37-.14-.63-.14s-.47.05-.62.16c-.15.11-.22.25-.22.45s.07.34.2.43c.13.09.33.15.6.19l.3.04c.38.05.66.16.84.31.18.15.27.36.27.64,0,.32-.12.56-.35.74-.23.18-.56.26-.97.26Z"/>
        <path class="cls-1" d="M96.53,35.1c-.32,0-.6-.05-.83-.16s-.43-.27-.6-.48l.3-.22c.15.19.32.32.51.41s.4.13.65.13c.29,0,.51-.06.66-.16.15-.11.23-.27.23-.48,0-.18-.06-.32-.18-.43-.12-.1-.31-.17-.58-.21l-.3-.05c-.17-.02-.32-.05-.46-.1-.14-.04-.26-.1-.36-.18s-.18-.17-.23-.27c-.06-.11-.08-.24-.08-.39s.03-.3.1-.42c.07-.12.15-.22.26-.3.11-.08.24-.14.4-.18.15-.04.32-.06.5-.06.31,0,.56.05.76.15.2.1.37.22.51.38l-.28.23c-.1-.11-.23-.2-.39-.29-.16-.09-.37-.14-.63-.14s-.47.05-.62.16c-.15.11-.22.25-.22.45s.07.34.2.43c.13.09.33.15.6.19l.3.04c.38.05.66.16.84.31.18.15.27.36.27.64,0,.32-.12.56-.35.74-.23.18-.56.26-.97.26Z"/>
        <path class="cls-1" d="M99.1,30.73c-.1,0-.17-.02-.21-.07s-.07-.1-.07-.17v-.07c0-.07.02-.13.07-.17s.12-.07.21-.07.17.02.21.07c.05.04.07.1.07.17v.07c0,.07-.02.13-.07.17-.05.04-.12.07-.21.07ZM98.9,31.65h.41v3.38h-.41v-3.38Z"/>
        <path class="cls-1" d="M100.63,30.14h.41v2.04h.02c.09-.19.23-.34.42-.45.19-.11.43-.17.71-.17.48,0,.85.15,1.12.46.27.31.41.74.41,1.31s-.14,1-.41,1.31c-.27.31-.65.46-1.12.46-.29,0-.52-.06-.7-.17-.18-.11-.33-.26-.43-.45h-.02v.54h-.41v-4.88ZM102.1,34.77c.37,0,.66-.11.87-.32.21-.22.31-.51.31-.87v-.48c0-.36-.1-.65-.31-.87-.21-.22-.5-.32-.87-.32-.15,0-.28.02-.41.06-.13.04-.24.09-.34.16-.1.07-.17.15-.23.24-.06.09-.08.19-.08.3v1.34c0,.12.03.23.08.32.06.09.13.18.23.24.1.07.21.12.34.16.13.04.26.05.41.05Z"/>
        <path class="cls-1" d="M104.96,30.73c-.1,0-.17-.02-.21-.07s-.07-.1-.07-.17v-.07c0-.07.02-.13.07-.17s.12-.07.21-.07.17.02.21.07c.05.04.07.1.07.17v.07c0,.07-.02.13-.07.17-.05.04-.12.07-.21.07ZM104.76,31.65h.41v3.38h-.41v-3.38Z"/>
        <path class="cls-1" d="M106.94,35.02c-.15,0-.26-.04-.34-.11-.08-.07-.12-.17-.12-.3v-4.47h.41v4.56h.57v.32h-.53Z"/>
        <path class="cls-1" d="M108.57,30.73c-.1,0-.17-.02-.21-.07s-.07-.1-.07-.17v-.07c0-.07.02-.13.07-.17s.12-.07.21-.07.17.02.21.07c.05.04.07.1.07.17v.07c0,.07-.02.13-.07.17-.05.04-.12.07-.21.07ZM108.36,31.65h.41v3.38h-.41v-3.38Z"/>
        <path class="cls-1" d="M110.73,35.02c-.15,0-.26-.04-.34-.11s-.12-.18-.12-.3v-2.64h-.65v-.32h.42c.1,0,.17-.02.21-.06.04-.04.05-.1.05-.2v-.69h.38v.94h.84v.32h-.84v2.73h.78v.32h-.74Z"/>
        <path class="cls-1" d="M114.73,31.65h.42l-1.72,4.33c-.06.14-.13.24-.21.29-.08.05-.22.08-.41.08h-.42v-.32h.62l.36-.89-1.38-3.48h.44l1.14,2.98h.03l1.13-2.98Z"/>
        <path class="cls-1" d="M120.72,32.86h-2.78v2.16h-.44v-4.6h.44v2.09h2.78v-2.09h.44v4.6h-.44v-2.16Z"/>
        <path class="cls-1" d="M124.83,34.49h-.03c-.03.08-.08.16-.14.23-.06.07-.13.14-.22.19-.09.05-.19.1-.31.14-.12.04-.26.05-.42.05-.4,0-.71-.11-.93-.33-.22-.22-.33-.54-.33-.95v-2.17h.41v2.1c0,.35.08.6.25.77.16.17.4.25.71.25.13,0,.26-.02.37-.05.12-.03.22-.08.32-.14s.17-.14.22-.23c.06-.09.08-.21.08-.33v-2.37h.41v3.38h-.41v-.53Z"/>
        <path class="cls-1" d="M126.56,30.14h.41v2.04h.02c.09-.19.23-.34.42-.45.19-.11.43-.17.71-.17.48,0,.85.15,1.12.46.27.31.41.74.41,1.31s-.14,1-.41,1.31c-.27.31-.65.46-1.12.46-.29,0-.52-.06-.7-.17-.18-.11-.33-.26-.43-.45h-.02v.54h-.41v-4.88ZM128.03,34.77c.37,0,.66-.11.87-.32.21-.22.31-.51.31-.87v-.48c0-.36-.1-.65-.31-.87-.21-.22-.5-.32-.87-.32-.15,0-.28.02-.41.06-.13.04-.24.09-.34.16-.1.07-.17.15-.23.24-.06.09-.08.19-.08.3v1.34c0,.12.03.23.08.32.06.09.13.18.23.24.1.07.21.12.34.16.13.04.26.05.41.05Z"/>
        <path class="cls-1" d="M131.71,33.06c-.2,0-.39-.03-.57-.1-.17-.07-.33-.16-.45-.28-.13-.12-.23-.26-.3-.43-.08-.17-.11-.35-.11-.54s.04-.38.11-.54c.07-.17.18-.31.3-.43.13-.12.28-.22.45-.28s.36-.1.57-.1.39.03.57.1.33.16.45.28c.13.12.23.26.3.43.07.17.11.35.11.54s-.04.38-.11.54c-.08.16-.18.31-.3.43-.13.12-.28.22-.45.28-.17.07-.36.1-.57.1ZM131.71,32.85c.17,0,.33-.03.48-.09.15-.06.27-.14.38-.23.11-.1.19-.21.25-.35s.09-.27.09-.42v-.15c0-.15-.03-.28-.09-.42-.06-.13-.14-.25-.25-.35-.11-.1-.23-.18-.38-.23-.15-.06-.3-.09-.48-.09s-.33.03-.48.09c-.15.06-.27.14-.38.23-.11.1-.19.21-.25.35-.06.13-.09.27-.09.42v.15c0,.15.03.28.09.42s.14.25.25.35.23.18.38.23c.15.06.3.09.48.09ZM131.41,32.41h-.22v-1.39h.62c.15,0,.26.04.34.11s.12.17.12.31c0,.11-.03.2-.09.27s-.13.11-.22.13l.36.58h-.25l-.34-.56h-.33v.56ZM131.81,31.69c.15,0,.23-.06.23-.19v-.11c0-.13-.08-.2-.23-.2h-.39v.49h.39Z"/>
      </g>
      <g>
        <path class="cls-1" d="M40.13,41.36c-.48,0-.88-.02-1.21-.06-.32-.04-.59-.11-.79-.21-.2-.09-.35-.22-.44-.37-.09-.15-.13-.34-.13-.57,0-.16.02-.33.07-.49s.12-.34.22-.53l.31.09c-.1.18-.18.34-.22.48-.05.14-.07.29-.07.42,0,.15.04.28.11.38.07.11.18.19.34.26.15.07.35.12.59.15.24.03.53.05.86.05h.7c.36,0,.67-.01.91-.03.24-.02.44-.06.58-.11.15-.05.25-.12.31-.21.06-.09.09-.19.09-.32,0-.07,0-.15-.01-.25,0-.1-.03-.25-.07-.44l-.1-.47.35-.05.08.47c.03.2.05.35.07.45.01.11.02.2.02.28,0,.2-.04.37-.13.5s-.23.25-.44.33c-.2.09-.47.15-.79.18s-.73.06-1.21.06ZM39.64,39.1c-.07,0-.13-.02-.18-.06s-.07-.09-.07-.17.02-.13.07-.17c.04-.04.1-.05.18-.05h.06c.07,0,.13.02.18.05.04.04.07.09.07.17s-.02.14-.07.17-.1.06-.18.06h-.06ZM40.53,39.1c-.07,0-.13-.02-.18-.06s-.07-.09-.07-.17.02-.13.07-.17c.04-.04.1-.05.18-.05h.06c.07,0,.13.02.18.05.04.04.07.09.07.17s-.02.14-.07.17-.1.06-.18.06h-.06Z"/>
        <path class="cls-1" d="M44.73,41.29c-.21,0-.39-.02-.53-.05-.14-.03-.26-.08-.35-.16-.09-.07-.15-.17-.19-.28-.04-.12-.06-.26-.06-.43v-3.43h.37v3.43c0,.21.05.35.16.43.11.08.28.12.52.12h.31v.26l-.11.09h-.12Z"/>
        <path class="cls-1" d="M44.85,41.02l.11-.09h.71v.26l-.11.09h-.71v-.26Z"/>
        <path class="cls-1" d="M45.56,41.02l.11-.09h.71v.26l-.11.09h-.71v-.26Z"/>
        <path class="cls-1" d="M46.27,41.02l.11-.09h.71v.26l-.11.09h-.71v-.26Z"/>
        <path class="cls-1" d="M46.98,41.02l.11-.09h.71v.26l-.11.09h-.71v-.26Z"/>
        <path class="cls-1" d="M47.69,41.02l.11-.09h.71v.26l-.11.09h-.71v-.26Z"/>
        <path class="cls-1" d="M48.4,41.02l.11-.09h.13c.33,0,.57-.05.71-.14.15-.09.22-.24.22-.46,0-.08,0-.18-.02-.29-.01-.12-.04-.27-.07-.45l-.09-.47.35-.05.08.47c.03.18.06.33.07.46.01.13.02.23.02.33,0,.64-.43.96-1.28.96h-.24v-.26ZM49.45,38.37c-.07,0-.13-.02-.18-.06s-.07-.09-.07-.17.02-.13.07-.17c.04-.04.1-.05.18-.05h.06c.07,0,.13.02.18.05.04.04.07.09.07.17s-.02.14-.07.17-.1.06-.18.06h-.06Z"/>
        <path class="cls-1" d="M51.95,41.29c-.21,0-.39-.02-.53-.05-.14-.03-.26-.08-.35-.16-.09-.07-.15-.17-.19-.28-.04-.12-.06-.26-.06-.43v-3.43h.37v3.43c0,.21.05.35.16.43.11.08.28.12.52.12h.31v.26l-.11.09h-.12Z"/>
        <path class="cls-1" d="M52.07,41.02l.11-.09h.16c.26,0,.44-.05.56-.14s.17-.25.17-.48v-.95h.35v.95c0,.41.23.62.68.62h.2v.26l-.11.09c-.6,0-.95-.19-1.06-.56h-.03c-.05.21-.15.36-.31.44-.15.08-.39.12-.71.12v-.26ZM52.77,42.46c-.07,0-.13-.02-.18-.06s-.07-.09-.07-.17.02-.13.07-.17c.04-.04.1-.05.18-.05h.06c.07,0,.13.02.18.05.04.04.07.09.07.17s-.02.14-.07.17c-.04.04-.1.06-.18.06h-.06ZM53.65,42.46c-.07,0-.13-.02-.18-.06s-.07-.09-.07-.17.02-.13.07-.17c.04-.04.1-.05.18-.05h.06c.07,0,.13.02.18.05.04.04.07.09.07.17s-.02.14-.07.17c-.04.04-.1.06-.18.06h-.06Z"/>
        <path class="cls-1" d="M54.19,41.02l.11-.09h.16c.26,0,.44-.05.56-.14s.17-.25.17-.48v-.95h.35v.95c0,.41.23.62.68.62h.2v.26l-.11.09c-.6,0-.95-.19-1.06-.56h-.03c-.05.21-.15.36-.31.44-.15.08-.39.12-.71.12v-.26ZM55.33,42.46c-.07,0-.13-.02-.18-.06-.04-.04-.07-.09-.07-.17s.02-.13.07-.17c.04-.04.1-.05.18-.05h.06c.07,0,.13.02.18.05.04.04.07.09.07.17s-.02.14-.07.17-.1.06-.18.06h-.06Z"/>
        <path class="cls-1" d="M56.3,41.02l.11-.09h.13c.26,0,.45-.05.57-.15.12-.1.18-.26.18-.48v-3.35h.37v3.35c0,.34-.09.6-.27.75s-.46.24-.85.24h-.24v-.26Z"/>
        <path class="cls-1" d="M58.78,36.95h.37v4.34h-.37v-4.34Z"/>
        <path class="cls-1" d="M60.82,42.34h.22c.27,0,.49-.03.67-.1.18-.06.33-.15.43-.27.11-.11.18-.25.23-.4.05-.15.07-.32.07-.5,0-.11,0-.23-.02-.35-.01-.13-.03-.25-.05-.35l-.15-.71.35-.06.1.58c.02.12.04.25.06.38s.03.25.04.38h.61v.26l-.11.09h-.5c-.02.2-.06.39-.13.56s-.17.32-.31.45-.31.23-.52.3c-.21.07-.47.11-.77.11h-.22v-.36ZM62.25,38.88c-.07,0-.13-.02-.18-.06-.04-.04-.07-.09-.07-.17s.02-.14.07-.17c.04-.04.1-.05.18-.05h.06c.07,0,.13.02.18.05.04.04.07.09.07.17s-.02.14-.07.17-.1.06-.18.06h-.06Z"/>
        <path class="cls-1" d="M63.28,41.02l.11-.09h.71v.26l-.11.09h-.71v-.26Z"/>
        <path class="cls-1" d="M63.99,41.02l.11-.09h.71v.26l-.11.09h-.71v-.26Z"/>
        <path class="cls-1" d="M64.7,41.02l.11-.09h.71v.26l-.11.09h-.71v-.26Z"/>
        <path class="cls-1" d="M65.41,41.02l.11-.09h.71v.26l-.11.09h-.71v-.26Z"/>
        <path class="cls-1" d="M66.12,41.02l.11-.09h.71v.26l-.11.09h-.71v-.26Z"/>
        <path class="cls-1" d="M66.83,41.02l.11-.09h.71c.26,0,.46-.04.61-.13.15-.08.22-.21.22-.37,0-.1-.03-.2-.1-.3-.07-.1-.19-.22-.36-.38l-.99-.86v-.68l2.96-1.33v.38l-2.77,1.26v.02l.84.74c.14.12.26.23.35.33.1.1.18.19.23.28s.1.17.13.26c.03.08.04.17.04.26,0,.27-.1.48-.31.64-.21.15-.5.23-.86.23h-.82v-.26Z"/>
        <path class="cls-1" d="M70.3,36.95h.37v4.34h-.37v-4.34Z"/>
        <path class="cls-1" d="M70.78,42.34h.22c.27,0,.49-.03.67-.1.18-.06.33-.15.43-.27.11-.11.18-.25.23-.4.05-.15.07-.32.07-.5,0-.11,0-.23-.02-.35-.01-.13-.03-.25-.05-.35l-.15-.71.35-.06.1.58c.02.12.04.25.06.38s.03.25.04.38h.61v.26l-.11.09h-.5c-.02.2-.06.39-.13.56s-.17.32-.31.45-.31.23-.52.3c-.21.07-.47.11-.77.11h-.22v-.36Z"/>
        <path class="cls-1" d="M73.24,41.02l.11-.09c.16,0,.29-.01.4-.04.1-.02.19-.06.25-.1-.06-.11-.08-.23-.08-.37,0-.22.08-.42.24-.6.16-.18.42-.35.77-.51l.42-.19h.39l.47,1.25c.04.11.08.19.12.27.04.07.09.13.14.17.05.04.11.07.18.09.07.02.15.03.24.03h.11v.26l-.11.09c-.15,0-.27-.01-.38-.04s-.2-.07-.28-.13c-.08-.06-.15-.14-.21-.24-.06-.1-.12-.23-.18-.39l-.39-1.06-.36.16c-.26.12-.46.24-.62.36-.15.12-.23.27-.23.44,0,.36.31.53.93.53h.66v.36h-.68c-.53,0-.88-.12-1.08-.36h-.03c-.07.12-.18.21-.31.27-.13.06-.3.09-.51.09v-.26Z"/>
        <path class="cls-1" d="M76.9,41.02l.11-.09h.13c.26,0,.45-.05.57-.15.12-.1.18-.26.18-.48v-3.35h.37v3.35c0,.34-.09.6-.27.75s-.46.24-.85.24h-.24v-.26Z"/>
        <path class="cls-1" d="M82.46,42.69c-.56,0-1-.13-1.31-.39-.31-.26-.47-.62-.47-1.08,0-.18.03-.37.09-.57.06-.2.14-.4.24-.6l.31.09c-.09.18-.17.35-.22.54-.06.18-.08.35-.08.52,0,.36.12.63.35.83s.55.29.96.29h.3c.47,0,.81-.1,1.03-.3.22-.2.32-.52.32-.95v-4.12h.37v4.12c0,1.08-.62,1.62-1.87,1.62Z"/>
        <path class="cls-1" d="M85.14,42.34h.43c.52,0,.92-.09,1.2-.27.28-.18.45-.44.52-.78h-.9c-.37,0-.65-.08-.85-.25s-.3-.39-.3-.69c0-.18.03-.34.09-.5.06-.16.14-.29.25-.41.11-.11.24-.21.39-.28s.31-.1.49-.1c.38,0,.67.15.89.44.21.29.32.7.32,1.23v.1s0,.06,0,.09h.34v.26l-.11.09h-.27c-.09.46-.31.81-.64,1.05-.34.24-.81.36-1.41.36h-.43v-.36ZM85.59,40.31c0,.41.26.62.77.62h.96v-.31c0-.18-.02-.34-.06-.49s-.1-.27-.18-.38c-.08-.11-.17-.19-.28-.24s-.23-.08-.37-.08c-.13,0-.25.02-.35.07-.1.05-.19.11-.27.18s-.13.17-.17.28c-.04.11-.06.23-.06.36Z"/>
        <path class="cls-1" d="M89.2,40.31c0,.3.11.5.35.58l.36-.51c.18-.26.36-.48.54-.66s.36-.33.55-.44.38-.19.57-.24c.19-.05.39-.08.6-.08.43,0,.77.1,1.01.31s.36.49.36.86c0,.4-.13.7-.4.88-.27.18-.66.28-1.18.28h-1.99c-.3,0-.53-.05-.7-.14s-.28-.23-.34-.43h-.03c-.05.21-.15.35-.3.44-.15.08-.38.13-.69.13v-.26l.11-.09h.16c.25,0,.43-.05.54-.14s.16-.25.16-.48v-.48h.35v.48ZM91.94,40.93c.4,0,.71-.06.92-.19.21-.12.32-.32.32-.58s-.08-.48-.24-.63c-.16-.15-.39-.22-.68-.22h-.19c-.18,0-.35.02-.51.06-.16.04-.31.11-.47.2-.15.09-.3.21-.45.36-.15.15-.3.33-.46.55l-.3.41.02.03h2.04Z"/>
        <path class="cls-1" d="M94.1,42.34h.43c.52,0,.92-.09,1.2-.27.28-.18.45-.44.52-.78h-.9c-.37,0-.65-.08-.85-.25s-.3-.39-.3-.69c0-.18.03-.34.09-.5.06-.16.14-.29.25-.41.11-.11.24-.21.39-.28s.31-.1.49-.1c.38,0,.67.15.89.44.21.29.32.7.32,1.23v.1s0,.06,0,.09h.34v.26l-.11.09h-.27c-.09.46-.31.81-.64,1.05-.34.24-.81.36-1.41.36h-.43v-.36ZM94.54,40.31c0,.41.26.62.77.62h.96v-.31c0-.18-.02-.34-.06-.49s-.1-.27-.18-.38c-.08-.11-.17-.19-.28-.24s-.23-.08-.37-.08c-.13,0-.25.02-.35.07-.1.05-.19.11-.27.18s-.13.17-.17.28c-.04.11-.06.23-.06.36Z"/>
        <path class="cls-1" d="M96.84,41.02l.11-.09h.13c.26,0,.45-.05.57-.15.12-.1.18-.26.18-.48v-3.35h.37v3.35c0,.34-.09.6-.27.75s-.46.24-.85.24h-.24v-.26Z"/>
        <path class="cls-1" d="M99.32,36.95h.37v4.34h-.37v-4.34Z"/>
        <path class="cls-1" d="M108.42,41.29c-.21,0-.38-.02-.53-.05s-.26-.09-.35-.16c-.09-.07-.16-.17-.2-.28-.04-.12-.06-.26-.06-.43v-.19l-1.32.19c.03.18.05.32.07.44.01.12.02.22.02.33,0,1.04-.68,1.56-2.04,1.56-.6,0-1.06-.13-1.39-.39s-.49-.62-.49-1.08c0-.18.03-.37.09-.57.06-.2.14-.4.24-.6l.31.09c-.09.17-.17.35-.22.52-.06.18-.08.34-.08.49,0,.37.12.65.37.86.25.2.59.31,1.04.31h.29c1.04,0,1.56-.39,1.56-1.18,0-.06,0-.13,0-.19,0-.06-.01-.14-.02-.21-.01-.08-.03-.16-.04-.26-.02-.1-.04-.21-.07-.33l-.1-.49.35-.06.08.43,1.39-.19v-.48h.35v1.01c0,.21.06.35.17.43.11.08.3.12.55.12h.2v.26l-.11.09h-.01ZM104.11,39.5c-.07,0-.13-.02-.18-.06-.04-.04-.07-.09-.07-.17s.02-.14.07-.17.1-.05.18-.05h.06c.07,0,.13.02.18.05.04.04.07.09.07.17s-.02.14-.07.17c-.04.04-.1.06-.18.06h-.06ZM106.98,42.46c-.07,0-.13-.02-.18-.06s-.07-.09-.07-.17.02-.13.07-.17c.04-.04.1-.05.18-.05h.06c.07,0,.13.02.18.05.04.04.07.09.07.17s-.02.14-.07.17c-.04.04-.1.06-.18.06h-.06ZM107.86,42.46c-.07,0-.13-.02-.18-.06s-.07-.09-.07-.17.02-.13.07-.17c.04-.04.1-.05.18-.05h.06c.07,0,.13.02.18.05.04.04.07.09.07.17s-.02.14-.07.17c-.04.04-.1.06-.18.06h-.06Z"/>
        <path class="cls-1" d="M108.43,41.02l.11-.09h.61c.27,0,.46-.03.59-.09s.19-.16.19-.3c0-.04,0-.08-.02-.12-.01-.04-.03-.08-.06-.13-.03-.05-.07-.1-.12-.16s-.11-.13-.18-.21l-.91-1.01v-.69l2.98-1.33v.38l-2.8,1.26v.02l1.48,1.62c.14.15.26.28.37.38s.22.18.33.23c.11.06.22.1.34.12s.25.03.4.03v.26l-.12.09c-.16,0-.3-.01-.42-.03-.12-.02-.24-.06-.35-.11-.11-.05-.21-.13-.32-.22-.1-.09-.22-.21-.34-.35l-.1-.13h-.02s0,.06.01.08c0,.03,0,.05,0,.08,0,.21-.08.38-.25.5s-.4.18-.69.18h-.72v-.26Z"/>
        <path class="cls-1" d="M111.63,41.02l.11-.09c.16,0,.29-.01.4-.04.1-.02.19-.06.25-.1-.06-.11-.08-.23-.08-.37,0-.22.08-.42.24-.6.16-.18.42-.35.77-.51l.42-.19h.39l.47,1.25c.04.11.08.19.12.27.04.07.09.13.14.17.05.04.11.07.18.09.07.02.15.03.24.03h.11v.26l-.11.09c-.15,0-.27-.01-.38-.04s-.2-.07-.28-.13c-.08-.06-.15-.14-.21-.24-.06-.1-.12-.23-.18-.39l-.39-1.06-.36.16c-.26.12-.46.24-.62.36-.15.12-.23.27-.23.44,0,.36.31.53.93.53h.66v.36h-.68c-.53,0-.88-.12-1.08-.36h-.03c-.07.12-.18.21-.31.27-.13.06-.3.09-.51.09v-.26Z"/>
        <path class="cls-1" d="M115.29,41.02l.11-.09h.13c.33,0,.57-.05.71-.14.15-.09.22-.24.22-.46,0-.08,0-.18-.02-.29-.01-.12-.04-.27-.07-.45l-.09-.47.35-.05.08.47c.03.18.06.33.07.46.01.13.02.23.02.33,0,.64-.43.96-1.28.96h-.24v-.26ZM115.88,38.37c-.07,0-.13-.02-.18-.06s-.07-.09-.07-.17.02-.13.07-.17c.04-.04.1-.05.18-.05h.06c.07,0,.13.02.18.05.04.04.07.09.07.17s-.02.14-.07.17-.1.06-.18.06h-.06ZM116.77,38.37c-.07,0-.13-.02-.18-.06s-.07-.09-.07-.17.02-.13.07-.17c.04-.04.1-.05.18-.05h.06c.07,0,.13.02.18.05.04.04.07.09.07.17s-.02.14-.07.17-.1.06-.18.06h-.06Z"/>
        <path class="cls-1" d="M121.76,41.29c-.21,0-.38-.01-.52-.04-.14-.03-.26-.08-.35-.15-.09-.07-.15-.16-.19-.26-.04-.11-.06-.24-.06-.4v-.11h-.03c-.06.16-.17.28-.32.36-.15.08-.33.13-.55.13-.29,0-.52-.07-.68-.2-.16-.13-.24-.32-.24-.56,0-.11.02-.21.06-.3.04-.09.1-.18.19-.26.09-.08.2-.17.34-.25s.31-.17.5-.27l.7-.34v-.36h.35v2.14c0,.2.06.34.17.42.11.08.28.12.51.12h.23v.26l-.11.09ZM119.79,40.45c.29,0,.5-.04.63-.13.13-.08.19-.23.19-.43v-.93l-.65.31c-.14.07-.26.13-.37.19-.1.06-.18.12-.25.18-.06.06-.11.12-.14.18-.03.06-.04.13-.04.21,0,.29.21.43.63.43ZM119.99,37.68c-.07,0-.13-.02-.18-.06-.04-.04-.07-.09-.07-.17s.02-.14.07-.17.1-.05.18-.05h.06c.07,0,.13.02.18.05.04.04.07.09.07.17s-.02.14-.07.17c-.04.04-.1.06-.18.06h-.06ZM120.87,37.68c-.07,0-.13-.02-.18-.06-.04-.04-.07-.09-.07-.17s.02-.14.07-.17.1-.05.18-.05h.06c.07,0,.13.02.18.05.04.04.07.09.07.17s-.02.14-.07.17c-.04.04-.1.06-.18.06h-.06Z"/>
        <path class="cls-1" d="M127.81,41.29c-.2,0-.36-.02-.49-.06-.13-.04-.25-.11-.36-.21-.25.18-.64.26-1.15.26h-1.99c-.3,0-.53-.05-.7-.14s-.28-.23-.34-.43h-.03c-.05.21-.15.35-.3.44-.15.08-.38.13-.69.13v-.26l.11-.09h.16c.25,0,.43-.05.54-.14s.16-.25.16-.48v-.48h.35v.48c0,.3.11.5.35.58l.36-.51c.18-.26.36-.48.54-.66s.36-.33.55-.44.38-.19.57-.24c.19-.05.39-.08.6-.08.43,0,.77.1,1.01.31s.36.49.36.86c0,.27-.06.48-.18.66.08.05.17.09.26.11.09.02.2.03.34.03h.11v.26l-.11.09ZM125.8,40.93c.4,0,.71-.06.92-.19.21-.12.32-.32.32-.58s-.08-.48-.24-.63c-.16-.15-.39-.22-.68-.22h-.19c-.18,0-.35.02-.51.06-.16.04-.31.11-.47.2-.15.09-.3.21-.45.36-.15.15-.3.33-.46.55l-.3.41.02.03h2.04Z"/>
        <path class="cls-1" d="M127.81,41.02l.11-.09h.16c.26,0,.44-.05.56-.14s.17-.25.17-.48v-.95h.35v.95c0,.41.23.62.68.62h.2v.26l-.11.09c-.6,0-.95-.19-1.06-.56h-.03c-.05.21-.15.36-.31.44-.15.08-.39.12-.71.12v-.26ZM128.95,38.64c-.07,0-.13-.02-.18-.06-.04-.04-.07-.09-.07-.17s.02-.14.07-.17c.04-.04.1-.05.18-.05h.06c.07,0,.13.02.18.05s.07.09.07.17-.02.14-.07.17c-.04.04-.1.06-.18.06h-.06Z"/>
        <path class="cls-1" d="M130.84,40.91c-.11.13-.23.23-.37.29-.14.06-.32.09-.55.09v-.26l.11-.09c.11,0,.2-.01.27-.04.07-.02.14-.06.2-.11.06-.05.11-.11.15-.19.04-.08.09-.17.13-.28l.17-.41c.11-.26.24-.46.41-.6s.39-.21.68-.21c.33,0,.59.12.77.36s.27.58.27,1.01v.52l-.29.36-1.96-.42ZM131.03,40.58l1.71.37v-.5c0-.32-.06-.56-.19-.74-.13-.18-.31-.27-.55-.27-.19,0-.35.05-.46.15-.11.1-.21.26-.3.47l-.17.41-.05.11Z"/>
      </g>
      <g>
        <polygon class="cls-1" points="11.81 18.03 0 12.97 0 48.34 20.11 39.72 20.11 30.31 11.81 26.75 11.81 18.03"/>
        <polygon class="cls-1" points="31.91 0 11.81 8.62 11.81 18.03 20.11 21.59 20.11 30.31 31.91 35.37 31.91 0"/>
        <polygon class="cls-2" points="11.81 18.03 11.81 26.75 20.11 30.31 20.11 21.59 11.81 18.03"/>
      </g>
    </g>
  </g>
</svg>