<?xml version="1.0" encoding="UTF-8"?>
<svg id="Layer_2" data-name="Layer 2" xmlns="http://www.w3.org/2000/svg" viewBox="0 0 110.69 40.19">
  <defs>
    <style>
      .cls-1 {
        fill: #29abe2;
      }

      .cls-2 {
        fill: #0071bc;
      }

      .cls-3 {
        fill: #2e3192;
      }
    </style>
  </defs>
  <g id="Layer_1-2" data-name="Layer 1">
    <g>
      <path d="M31.3,7.84h13.43v3.83h-8.78v1.14h8.03v3.03h-8.03v1.12h8.77v3.83h-13.43V7.84Z"/>
      <path d="M52.56,17.29h-2.24v3.53h-4.67V7.84h9.73c2.72,0,5.12.15,5.12,4.9,0,2.78-1.1,3.89-2.97,4.2l3.07,3.87h-5.42l-2.61-3.53ZM50.32,13.51h4.63c1.21,0,1.46-.04,1.46-.76s-.25-.78-1.46-.78h-4.63v1.55Z"/>
      <path d="M60.94,20.81l5.53-12.97h5.9l5.53,12.97h-4.87l-.8-1.85h-5.63l-.8,1.85h-4.85ZM67.95,15.23h2.95l-1.46-3.85-1.49,3.85Z"/>
      <path d="M88.36,20.81h-9.95V7.84h9.95c2.72,0,5.4,1.88,5.4,6.48s-2.69,6.48-5.4,6.48ZM89.53,14.33c0-1.55-.54-2.37-1.75-2.37h-4.7v4.73h4.7c1.21,0,1.75-.82,1.75-2.36Z"/>
      <path d="M100.2,7.58h5.15c2.5,0,4.96,1.85,5.34,5.69h-4.32c-.28-.91-.91-1.58-1.78-1.58h-3.62c-1.21,0-1.94.74-1.94,2.65s.73,2.65,1.94,2.65h3.62c.87,0,1.49-.65,1.78-1.58h4.32c-.38,3.83-2.84,5.7-5.34,5.7h-5.15c-2.72,0-5.4-2.15-5.4-6.77s2.69-6.75,5.4-6.75Z"/>
      <path d="M31.3,28.32v-5.43h3.49v.41h-2.98v2.06h2.83v.41h-2.83v2.15h2.98v.41h-3.49Z"/>
      <path d="M36.17,28.32v-3.98h.49v.72h.03c.1-.2.25-.38.44-.5.26-.16.57-.24.87-.22h.29v.43h-.39c-.31-.01-.63.06-.9.22-.22.12-.35.36-.35.61v2.72h-.49Z"/>
      <path d="M42.22,28.32c-.15.01-.3-.03-.41-.13-.09-.1-.14-.22-.14-.36v-.14h-.04c-.1.23-.26.42-.48.54-.26.14-.55.2-.85.19-.38.03-.76-.08-1.07-.31-.26-.21-.4-.54-.38-.87,0-.33.15-.65.42-.85.28-.21.73-.31,1.37-.31h1.01v-.47c0-.66-.38-.99-1.12-.99-.25,0-.51.05-.73.17-.2.11-.36.28-.47.48l-.31-.23c.13-.24.32-.44.55-.57.3-.16.63-.24.97-.23.42-.03.84.1,1.18.35.28.25.43.61.41.98v2.36h.59v.38h-.49ZM40.36,28.03c.17,0,.33-.02.5-.06.14-.04.28-.1.41-.18.11-.07.2-.16.27-.27.07-.11.1-.24.1-.36v-.75h-1.03c-.33-.03-.66.04-.96.19-.19.11-.3.32-.3.54v.19c-.01.21.09.42.27.54.22.13.48.19.74.17h0Z"/>
      <path d="M45.55,22.89h1.9c.66-.04,1.31.21,1.78.68.42.45.63,1.13.63,2.04s-.21,1.59-.63,2.04c-.47.47-1.12.72-1.78.68h-1.9v-5.43ZM47.46,27.9c.51.03,1-.15,1.37-.51.34-.39.52-.91.49-1.43v-.71c.03-.52-.15-1.04-.49-1.43-.36-.36-.86-.55-1.37-.52h-1.4v4.6h1.4Z"/>
      <path d="M54.22,28.32c-.26.04-.51-.14-.55-.4,0-.03,0-.06,0-.08v-.14h-.04c-.1.23-.27.41-.48.54-.26.14-.55.2-.85.19-.38.03-.76-.08-1.07-.31-.26-.21-.39-.54-.38-.87-.01-.33.14-.65.41-.85.27-.21.73-.31,1.37-.31h1.01v-.47c0-.66-.37-.99-1.12-.99-.25,0-.5.05-.73.17-.2.11-.36.28-.47.48l-.31-.23c.13-.24.32-.44.55-.57.3-.16.63-.24.97-.23.42-.03.84.1,1.18.35.28.25.43.61.41.98v2.36h.59v.38h-.49ZM52.36,28.03c.17,0,.33-.02.5-.06.14-.04.28-.1.41-.18.11-.07.2-.16.27-.27.07-.11.1-.24.1-.36v-.75h-1.03c-.33-.03-.66.04-.96.19-.19.11-.3.32-.3.54v.19c-.01.21.09.42.27.54.22.13.48.19.74.17Z"/>
      <path d="M56.49,28.32c-.15.01-.29-.04-.4-.13-.09-.1-.14-.23-.14-.36v-3.11h-.76v-.38h.5c.09.01.17-.01.24-.07.05-.07.07-.15.06-.24v-.8h.45v1.11h1v.38h-1v3.22h.93v.38h-.87Z"/>
      <path d="M61.61,28.32c-.26.04-.51-.14-.55-.4,0-.03,0-.06,0-.08v-.14h-.04c-.1.23-.27.42-.48.54-.26.14-.55.2-.85.19-.38.03-.76-.08-1.07-.31-.26-.21-.39-.54-.38-.87-.01-.33.15-.65.42-.85.27-.21.73-.31,1.37-.31h1.01v-.47c0-.66-.37-.99-1.12-.99-.25,0-.5.05-.73.17-.2.11-.36.28-.47.48l-.31-.23c.13-.24.32-.44.55-.57.3-.16.63-.24.97-.23.42-.03.84.1,1.18.35.28.25.43.61.41.98v2.36h.59v.38h-.49ZM59.76,28.03c.17,0,.33-.02.5-.06.14-.04.28-.1.41-.18.11-.07.2-.16.27-.27.07-.11.1-.24.1-.36v-.75h-1.03c-.33-.03-.66.04-.96.19-.19.11-.3.32-.3.54v.19c-.01.21.09.42.27.54.22.13.48.19.74.17Z"/>
      <path d="M66.97,28.41c-.65.04-1.28-.22-1.72-.7-.4-.47-.61-1.17-.61-2.09s.2-1.63.61-2.1c.43-.49,1.07-.75,1.72-.71.42-.01.85.09,1.21.31.33.2.59.49.77.84l-.42.23c-.12-.29-.33-.53-.6-.7-.29-.18-.62-.28-.96-.27-.5-.03-.98.17-1.31.54-.34.45-.51,1.01-.47,1.58v.62c-.04.55.13,1.1.47,1.54.33.36.81.56,1.31.54.35.02.7-.08,1-.27.27-.18.48-.44.6-.74l.42.23c-.17.36-.44.67-.78.88-.38.22-.81.33-1.25.31Z"/>
      <path d="M71.75,28.41c-.27,0-.55-.04-.8-.14-.23-.09-.44-.23-.61-.41-.17-.19-.31-.41-.39-.66-.09-.28-.14-.58-.13-.88,0-.3.04-.59.13-.88.08-.24.21-.46.39-.65.17-.18.38-.32.6-.41.25-.1.52-.15.79-.14.26,0,.52.05.76.14.22.09.42.23.58.4.17.18.29.39.37.62.09.26.14.53.13.8v.21h-3.25v.19c0,.19.03.39.1.57.06.17.16.32.29.44.13.13.28.23.45.29.19.07.39.11.6.1.57.04,1.1-.28,1.33-.8l.36.22c-.14.3-.36.54-.65.7-.32.19-.69.28-1.07.27ZM71.75,24.62c-.2,0-.39.03-.57.11-.17.07-.32.16-.44.29-.12.13-.22.28-.28.45-.07.18-.1.38-.1.57v.04h2.7v-.06c0-.2-.03-.39-.09-.57-.12-.33-.37-.59-.69-.72-.17-.07-.35-.11-.54-.11h.01Z"/>
      <path d="M74.83,28.32v-3.98h.49v.63h.03c.1-.21.26-.39.45-.52.25-.15.55-.22.84-.21.4-.02.8.12,1.09.39.27.31.41.71.39,1.12v2.56h-.49v-2.48c.03-.33-.08-.65-.29-.9-.23-.21-.53-.32-.83-.3-.15,0-.3.02-.45.05-.13.03-.26.09-.38.16-.11.07-.2.16-.27.27-.07.12-.1.25-.1.39v2.8h-.49Z"/>
      <path d="M80.4,28.32c-.15.01-.29-.04-.4-.13-.09-.1-.14-.23-.14-.36v-3.11h-.76v-.38h.5c.13.03.27-.05.31-.18.01-.04.01-.08,0-.12v-.8h.45v1.11h.99v.38h-.99v3.22h.92v.38h-.87Z"/>
      <path d="M84.05,28.41c-.27,0-.54-.04-.79-.14-.23-.09-.44-.23-.61-.41-.17-.19-.31-.41-.39-.66-.09-.28-.14-.58-.13-.88,0-.3.04-.59.13-.88.08-.24.21-.46.39-.65.17-.18.37-.32.6-.41.25-.1.52-.15.79-.14.26,0,.52.05.76.14.22.09.42.23.58.4.17.18.29.39.37.62.09.26.14.53.13.8v.21h-3.25v.19c0,.19.03.39.1.57.06.17.15.32.27.45.13.13.28.23.45.29.19.07.4.11.6.1.57.04,1.1-.28,1.33-.8l.36.22c-.14.29-.36.54-.64.7-.32.18-.68.27-1.04.26ZM84.05,24.62c-.2,0-.39.03-.57.11-.16.07-.31.16-.44.29-.12.13-.21.28-.27.45-.07.18-.1.38-.1.57v.04h2.71v-.06c0-.2-.03-.39-.09-.57-.06-.16-.15-.31-.27-.44-.12-.12-.26-.21-.42-.27-.18-.08-.37-.12-.56-.12h0Z"/>
      <path d="M87.13,28.32v-3.98h.49v.72h.03c.1-.2.25-.37.43-.5.26-.16.57-.24.87-.22h.29v.43h-.39c-.31-.01-.63.06-.9.22-.22.12-.36.35-.35.61v2.72h-.49Z"/>
      <path d="M95.81,25.77h-3.28v2.55h-.51v-5.43h.51v2.47h3.28v-2.47h.52v5.43h-.52v-2.55Z"/>
      <path d="M100.71,27.69h-.03c-.04.1-.1.19-.16.27-.07.09-.16.17-.25.23-.11.07-.24.13-.36.16-.16.04-.33.06-.49.06-.4.02-.8-.12-1.1-.39-.28-.31-.42-.71-.39-1.13v-2.55h.49v2.48c-.03.33.08.66.29.91.23.21.53.32.84.3.15,0,.3-.02.44-.05.13-.03.26-.09.38-.16.11-.07.2-.16.27-.27.07-.12.1-.26.1-.39v-2.8h.49v3.98h-.49v-.63Z"/>
      <path d="M102.79,22.56h.5v2.41h.03c.11-.22.28-.41.5-.54.26-.14.55-.21.84-.2.51-.03,1,.16,1.34.54.34.44.52.99.48,1.54.03.55-.14,1.1-.48,1.54-.34.37-.84.57-1.34.54-.29.01-.58-.06-.83-.2-.21-.13-.39-.31-.5-.54h-.03v.64h-.49v-5.74ZM104.53,28.02c.38.02.75-.12,1.03-.38.25-.28.39-.65.37-1.03v-.56c.02-.38-.11-.75-.37-1.03-.27-.26-.65-.4-1.03-.38-.16,0-.33.02-.48.07-.14.04-.28.1-.4.18-.11.07-.2.16-.27.27-.07.11-.1.23-.1.36v1.58c0,.13.03.26.1.38.07.11.16.21.27.29.12.08.26.15.4.18.16.05.32.07.48.07h0Z"/>
      <path d="M108.91,26c-.23,0-.46-.04-.67-.12-.2-.08-.38-.19-.54-.34-.15-.14-.27-.31-.36-.5-.09-.2-.13-.42-.13-.64,0-.22.04-.44.13-.64.09-.19.21-.36.36-.51.16-.14.34-.26.54-.33.21-.08.44-.12.67-.12.23,0,.45.04.67.12.2.08.38.19.54.33.15.14.27.32.36.51.09.2.13.42.13.64,0,.22-.04.44-.13.64-.09.19-.21.36-.36.5-.16.15-.34.26-.54.34-.21.08-.44.12-.67.12ZM108.91,25.76c.19,0,.38-.03.56-.1.16-.06.32-.15.45-.27.25-.23.4-.56.39-.9v-.17c0-.17-.03-.33-.1-.49-.07-.16-.17-.29-.29-.41-.13-.12-.28-.21-.45-.27-.36-.13-.76-.13-1.13,0-.16.06-.31.15-.45.27-.12.12-.22.26-.29.41-.07.15-.11.32-.1.49v.17c0,.34.14.67.39.9.13.12.28.21.45.27.18.07.37.1.57.1h0ZM108.56,25.24h-.27v-1.63h.74c.15,0,.29.04.4.13.17.19.19.47.04.68-.07.08-.16.13-.25.15l.43.69h-.29l-.4-.66h-.39v.65ZM109.03,24.38c.18,0,.27-.08.27-.23v-.12c0-.16-.09-.23-.27-.23h-.46v.58h.46Z"/>
      <path d="M33.41,36.17c-.55.03-1.1-.1-1.57-.39-.37-.24-.58-.65-.56-1.09,0-.19.03-.39.09-.57.06-.21.14-.41.24-.61l.31.09c-.09.17-.16.35-.22.54-.05.16-.08.33-.08.5-.01.34.15.67.43.86.37.22.8.33,1.23.3h.3c.47.02.93-.09,1.34-.32.31-.19.5-.54.48-.9v-.06l-1.2-.24c-.29-.04-.57-.16-.8-.32-.17-.13-.27-.34-.27-.56,0-.19.04-.37.12-.54.08-.17.19-.32.32-.45.14-.13.29-.24.47-.32.18-.08.37-.12.56-.12.22,0,.43.04.62.15.17.1.31.24.41.42l-.31.23c-.15-.28-.45-.45-.77-.44-.14,0-.29.03-.42.08-.13.05-.24.13-.34.22-.1.09-.17.2-.23.32-.05.12-.08.25-.08.39,0,.14.07.26.18.34.17.11.37.19.57.22l1.07.23c.29.06.43.2.43.44.01.47-.22.92-.61,1.18-.22.15-.47.25-.73.32-.31.08-.63.12-.95.12ZM32.94,37.35c-.06,0-.13-.02-.18-.06-.05-.04-.07-.11-.07-.17,0-.06.02-.13.07-.17.05-.04.11-.06.18-.05h.06c.06,0,.13.02.18.05.05.04.07.11.06.17,0,.06-.02.13-.06.17-.05.04-.11.06-.18.06h-.06ZM33.83,37.35c-.06,0-.13-.02-.18-.06-.05-.04-.07-.11-.07-.17,0-.06.02-.13.07-.17.05-.04.11-.06.18-.05h.06c.06,0,.13.02.18.05.05.04.07.11.07.17,0,.07-.02.13-.07.17-.05.04-.11.06-.18.06h-.06Z"/>
      <path d="M35.55,35.81h.22c.23,0,.46-.03.68-.1.16-.05.31-.15.43-.27.11-.11.19-.25.23-.41.05-.16.07-.33.07-.5,0-.12,0-.24-.02-.36,0-.12-.03-.24-.05-.36l-.11-.54,1.97-.24v.76c-.03.23.11.46.33.54l.35-.51c.16-.24.34-.46.54-.66.17-.17.36-.32.56-.44.18-.11.37-.19.57-.24.2-.05.4-.08.6-.08.37-.02.74.09,1.03.31.25.22.39.54.37.87,0,.24-.06.47-.2.67.08.05.17.09.27.11.11.02.22.03.33.03h.11v.27l-.11.1c-.16,0-.33-.01-.49-.05-.13-.04-.25-.11-.36-.2-.35.19-.75.28-1.16.25h-2.08c-.28.02-.55-.06-.77-.23-.18-.19-.27-.46-.25-.72v-.38l-1.2.15v.08c.04.15.06.31.08.46.02.14.02.28.02.42,0,.22-.03.43-.09.64-.06.19-.16.37-.3.52-.15.15-.33.27-.54.35-.27.09-.55.13-.83.13h-.22v-.35ZM39.63,34.36l.02.03h2.08c.32.02.64-.05.93-.19.21-.12.33-.34.32-.58.02-.24-.08-.47-.25-.63-.2-.16-.45-.24-.71-.22h-.18c-.17,0-.35.02-.52.06-.17.04-.32.11-.47.2-.17.1-.32.23-.45.36-.17.17-.32.36-.46.55l-.31.41Z"/>
      <path d="M43.73,34.48l.11-.09h.72c.16,0,.3,0,.41-.01.1,0,.19-.03.28-.06l-.13-.13-.99-1.05v-.39c.21-.09.43-.16.66-.21.23-.05.46-.07.7-.07.33-.02.65.05.95.2.21.11.34.33.33.57,0,.16-.06.32-.16.45-.15.18-.32.33-.52.46l-.3.2c.06.02.12.04.18.04.09,0,.18,0,.27,0h.86v.27l-.11.1h-.75c-.14,0-.27-.01-.41-.05-.12-.03-.24-.09-.34-.17-.13.08-.28.14-.43.17-.17.03-.34.04-.51.04h-.84v-.26ZM44.46,33.01l1.11,1.15.34-.24c.15-.1.28-.21.41-.33.08-.09.13-.2.13-.32,0-.15-.11-.28-.25-.33-.22-.09-.46-.13-.7-.12-.35,0-.7.06-1.04.17v.02Z"/>
      <path d="M46.99,34.48l.11-.09h.12c.21.02.41-.04.58-.15.13-.13.2-.3.18-.49v-3.38h.37v3.38c.02.28-.07.56-.27.76-.25.18-.55.27-.86.24h-.24v-.27Z"/>
      <path d="M49.49,30.38h.37v4.38h-.37v-4.38Z"/>
      <path d="M56.46,34.82c-.41,0-.81-.02-1.22-.06-.28-.03-.55-.1-.8-.21-.18-.08-.33-.21-.44-.38-.09-.18-.14-.37-.13-.57,0-.17.03-.34.08-.5.06-.19.13-.37.23-.54l.31.09c-.09.15-.17.31-.22.48-.04.14-.07.28-.07.43,0,.14.03.27.11.39.08.12.2.21.34.27.19.08.39.13.59.15.29.03.58.05.87.05h.7c.37,0,.67,0,.91-.03.2-.01.4-.05.58-.11.12-.03.23-.11.31-.21.06-.1.09-.21.09-.32,0-.08,0-.17-.01-.25,0-.1-.03-.25-.07-.45l-.1-.47.35-.05.08.47c.03.2.06.35.07.46s.02.2.02.27c0,.18-.04.36-.14.51-.11.15-.26.27-.44.34-.26.1-.53.16-.8.19-.4.04-.8.06-1.2.06ZM55.98,32.55c-.06,0-.13-.02-.18-.06-.05-.05-.07-.11-.06-.17,0-.06.02-.13.06-.17.05-.04.12-.06.18-.05h.05c.06,0,.13.02.18.05.05.04.07.11.06.17,0,.06-.02.13-.06.17-.05.04-.11.06-.18.06h-.05ZM56.87,32.55c-.06,0-.13-.02-.18-.06-.05-.04-.07-.11-.07-.17,0-.06.02-.13.07-.17.05-.04.11-.06.18-.05h.06c.06,0,.13.02.18.05.05.04.07.11.06.17,0,.06-.02.13-.06.17-.05.04-.11.06-.18.06h-.06Z"/>
      <path d="M61.1,34.75c-.18,0-.36-.01-.54-.05-.13-.02-.25-.08-.35-.16-.09-.08-.16-.17-.2-.29-.04-.14-.06-.29-.06-.43v-3.45h.37v3.45c-.02.16.04.32.16.44.16.1.35.14.54.12h.31v.27l-.11.1h-.13Z"/>
      <path d="M61.22,34.48l.11-.09h.72v.27l-.11.1h-.72v-.27Z"/>
      <path d="M61.93,34.48l.11-.09h.72v.27l-.11.1h-.72v-.27Z"/>
      <path d="M62.65,34.48l.11-.09h.72v.27l-.11.1h-.72v-.27Z"/>
      <path d="M63.37,34.48l.11-.09h.72v.27l-.11.1h-.72v-.27Z"/>
      <path d="M64.09,34.48l.11-.09h.73v.27l-.11.1h-.72v-.27Z"/>
      <path d="M64.8,34.48l.11-.09h.13c.25.02.5-.03.72-.14.15-.1.24-.27.23-.45,0-.1,0-.2-.02-.3-.01-.12-.04-.27-.07-.46l-.09-.47.35-.05.08.47c.03.18.06.34.07.46.01.11.02.22.02.33,0,.64-.43.97-1.29.97h-.24v-.28ZM65.88,31.8c-.06,0-.13-.02-.18-.06-.05-.05-.07-.11-.06-.17,0-.06.02-.13.06-.17.05-.04.12-.05.18-.05h.05c.06,0,.13.01.18.05.05.04.07.11.07.17,0,.07-.02.13-.07.17-.05.04-.11.06-.18.06h-.05Z"/>
      <path d="M68.38,34.75c-.18,0-.36-.01-.54-.05-.13-.02-.25-.08-.35-.16-.09-.08-.16-.17-.2-.29-.04-.14-.06-.29-.06-.43v-3.45h.37v3.45c-.02.16.04.33.16.44.16.1.35.14.54.12h.31v.27l-.11.1h-.13Z"/>
      <path d="M68.5,34.48l.11-.09h.16c.2.02.4-.03.56-.14.13-.13.19-.3.17-.48v-.96h.35v.96c0,.42.23.63.69.63h.2v.27l-.11.1c-.6,0-.96-.19-1.07-.57h-.03c-.03.19-.15.35-.31.44-.23.1-.47.14-.72.13v-.27ZM69.2,35.93c-.06,0-.13-.02-.18-.06-.05-.04-.07-.11-.07-.17,0-.06.02-.13.07-.17.05-.04.11-.06.18-.05h.06c.06,0,.13.01.18.05.05.04.07.11.07.17,0,.07-.02.13-.07.17-.05.04-.11.06-.18.06h-.06ZM70.09,35.93c-.06,0-.13-.02-.18-.06-.05-.05-.07-.11-.07-.17,0-.06.02-.13.07-.17.05-.04.11-.06.18-.05h.06c.06,0,.13.01.18.05.05.04.07.11.07.17,0,.07-.02.13-.07.17-.05.04-.11.06-.18.06h-.06Z"/>
      <path d="M70.63,34.48l.11-.09h.16c.2.02.4-.03.56-.14.13-.13.19-.3.17-.48v-.96h.35v.96c0,.42.23.63.69.63h.2v.27l-.11.1c-.6,0-.96-.19-1.07-.57h-.03c-.03.19-.15.35-.31.44-.23.1-.47.14-.72.13v-.27ZM71.78,35.93c-.06,0-.13-.02-.18-.06-.05-.05-.07-.11-.07-.17,0-.06.02-.13.07-.17.05-.04.11-.05.18-.05h.06c.06,0,.13.01.18.05.05.04.07.11.07.17,0,.07-.02.13-.07.17-.05.04-.11.06-.18.06h-.06Z"/>
      <path d="M72.76,34.48l.11-.09h.13c.2.02.41-.04.58-.15.13-.13.2-.3.18-.49v-3.38h.37v3.38c.03.28-.07.56-.27.76-.25.18-.55.27-.86.24h-.24v-.27Z"/>
      <path d="M75.26,30.38h.37v4.38h-.37v-4.38Z"/>
      <path d="M78.88,35.81h.22c.23,0,.46-.03.68-.1.16-.05.31-.15.43-.27.11-.12.19-.25.23-.41.05-.16.07-.33.07-.5,0-.11,0-.23-.02-.36-.01-.12-.03-.24-.05-.36l-.15-.71.35-.06.1.58c.02.13.04.27.06.38s.03.27.04.38h.61v.27l-.11.1h-.51c-.02.19-.06.38-.13.56-.07.17-.18.33-.31.45-.16.14-.34.24-.54.3-.25.07-.51.11-.77.1h-.21v-.36ZM80.32,32.32c-.06,0-.13-.02-.18-.06-.05-.05-.07-.11-.06-.17,0-.06.02-.13.06-.17.05-.04.11-.06.18-.05h.06c.06,0,.13.02.18.05.05.04.07.11.07.17,0,.07-.02.13-.07.17-.05.04-.11.06-.18.06h-.06Z"/>
      <path d="M81.36,34.48l.11-.09h.72v.27l-.11.1h-.72v-.27Z"/>
      <path d="M82.1,34.48l.11-.09h.69v.27l-.11.1h-.69v-.27Z"/>
      <path d="M82.8,34.48l.11-.09h.72v.27l-.11.1h-.72v-.27Z"/>
      <path d="M83.52,34.48l.11-.09h.72v.27l-.11.1h-.72v-.27Z"/>
      <path d="M84.24,34.48l.11-.09h.72v.27l-.11.1h-.72v-.27Z"/>
      <path d="M84.95,34.48l.11-.09h.72c.21.01.42-.03.61-.13.14-.07.23-.22.22-.38,0-.11-.04-.21-.1-.3-.1-.14-.22-.27-.36-.38l-1-.86v-.69l2.98-1.34v.38l-2.79,1.27v.02l.85.75c.14.12.27.23.36.34.09.09.17.18.24.28.06.08.1.17.13.27.11.33,0,.69-.27.9-.26.17-.56.25-.87.23h-.83v-.28Z"/>
      <path d="M86.93,35.81h.22c.23,0,.46-.03.68-.1.16-.05.31-.15.43-.27.11-.12.19-.25.23-.41.05-.16.07-.33.07-.5,0-.11,0-.23-.02-.36-.01-.12-.03-.24-.05-.36l-.15-.71.35-.06.1.58c.02.13.04.27.06.38s.03.27.04.38h.61v.27l-.11.1h-.51c-.02.19-.06.38-.13.56-.07.17-.18.33-.31.45-.16.14-.34.24-.54.3-.25.07-.51.11-.77.1h-.21v-.36Z"/>
      <path d="M90.33,34.37c-.1.13-.23.22-.38.29-.18.07-.36.1-.55.09v-.27l.11-.09c.09,0,.18,0,.27-.03.07-.02.14-.06.2-.11.06-.05.11-.12.15-.19.05-.09.1-.19.14-.28l.17-.41c.09-.23.23-.44.41-.61.2-.15.44-.23.69-.21.3-.01.59.12.78.36.2.3.29.66.27,1.01v.54l-.29.36-1.97-.43ZM90.52,34.04l1.73.37v-.5c.02-.26-.05-.53-.19-.75-.13-.18-.33-.28-.55-.27-.17,0-.33.05-.46.15-.13.13-.23.3-.3.47l-.17.42-.05.1Z"/>
      <path d="M99.17,34.75c-.18,0-.36-.01-.54-.05-.13-.02-.24-.07-.35-.15-.09-.07-.16-.16-.2-.27-.04-.13-.06-.27-.06-.41v-.11h-.03c-.06.15-.18.28-.32.36-.17.09-.36.13-.55.13-.24.01-.49-.06-.68-.2-.16-.14-.25-.35-.24-.56,0-.1.02-.21.06-.3.04-.1.11-.19.19-.27.1-.1.21-.19.34-.27.14-.08.31-.17.51-.27l.71-.34v-.36h.35v2.15c-.02.16.05.32.17.42.16.09.33.13.51.12h.24v.27l-.1.12ZM97.2,33.9c.22.02.44-.03.63-.13.14-.1.21-.27.19-.44v-.94l-.65.31c-.14.07-.27.13-.37.19-.09.05-.17.11-.25.18-.06.05-.11.12-.14.19-.03.06-.05.14-.05.21,0,.29.21.43.63.43ZM97.39,31.12c-.06,0-.13-.02-.18-.06-.05-.04-.07-.11-.07-.17,0-.06.02-.13.07-.17.05-.04.11-.06.18-.05h.06c.06,0,.13.02.18.05.05.04.07.11.07.17,0,.07-.02.13-.07.17-.05.04-.11.06-.18.06h-.06ZM98.28,31.12c-.06,0-.13-.02-.18-.06-.05-.04-.07-.11-.07-.17,0-.06.02-.13.07-.17.05-.04.11-.06.18-.05h.06c.06,0,.13.02.18.05.05.04.07.11.07.17,0,.07-.02.13-.07.17-.05.04-.11.06-.18.06h-.06Z"/>
      <path d="M105.27,34.75c-.17,0-.33-.01-.49-.06-.14-.04-.26-.11-.37-.21-.35.2-.76.3-1.16.27h-2c-.24.01-.49-.04-.71-.14-.17-.09-.29-.25-.34-.43h-.03c-.03.18-.14.34-.3.44-.22.1-.46.14-.7.13v-.27l.11-.09h.16c.19.02.38-.03.54-.14.12-.13.18-.3.16-.48v-.5h.35v.49c-.03.25.11.49.35.58l.36-.52c.16-.24.34-.46.54-.66.17-.17.35-.32.55-.44.18-.11.37-.19.57-.24.2-.05.4-.08.6-.08.36-.02.73.09,1.01.31.25.22.38.54.36.87,0,.23-.05.46-.18.66.08.06.17.09.27.11.11.02.23.03.34.03h.11v.27l-.1.1ZM103.25,34.39c.32.02.64-.05.93-.19.21-.12.33-.34.32-.58.02-.24-.07-.47-.24-.63-.19-.16-.44-.23-.68-.22h-.19c-.17,0-.34.02-.51.06-.17.04-.32.11-.47.2-.17.1-.32.22-.45.36-.17.17-.32.36-.47.55l-.31.41.02.03h2.05Z"/>
      <path d="M105.27,34.48l.11-.09h.16c.2.02.4-.03.56-.14.12-.13.19-.3.17-.48v-.96h.35v.96c0,.42.23.63.69.63h.2v.27l-.11.1c-.6,0-.96-.19-1.07-.57h-.03c-.03.19-.15.35-.31.44-.23.1-.47.14-.72.13v-.27ZM106.42,32.08c-.06,0-.13-.02-.18-.06-.05-.05-.07-.11-.06-.17,0-.06.02-.13.06-.17.05-.04.12-.06.18-.05h.06c.06,0,.13.02.18.05.05.04.07.11.06.17,0,.06-.02.13-.06.17-.05.04-.11.06-.18.06h-.06Z"/>
      <path d="M108.33,34.37c-.1.13-.23.22-.38.29-.18.07-.36.1-.55.09v-.27l.11-.09c.09,0,.18,0,.27-.03.07-.02.14-.06.2-.11.06-.05.11-.12.15-.19.05-.09.1-.19.14-.28l.17-.41c.09-.23.23-.44.41-.61.2-.15.44-.23.69-.21.3-.01.59.12.78.36.2.3.29.66.27,1.01v.54l-.29.36-1.97-.43ZM108.52,34.04l1.73.37v-.5c.02-.26-.05-.53-.19-.75-.13-.18-.33-.28-.55-.27-.17,0-.33.05-.46.15-.13.13-.23.3-.3.47l-.17.42-.05.1Z"/>
      <polygon class="cls-3" points="9.81 14.99 0 10.78 0 40.19 16.72 33.02 16.72 25.2 9.81 22.24 9.81 14.99"/>
      <polygon class="cls-2" points="26.53 0 9.81 7.17 9.81 14.99 16.72 17.95 16.72 25.2 26.53 29.41 26.53 0"/>
      <polygon class="cls-1" points="9.81 14.99 9.81 22.24 16.72 25.2 16.72 17.95 9.81 14.99"/>
    </g>
  </g>
</svg>