<?xml version="1.0" encoding="UTF-8"?>
<svg id="Layer_2" data-name="Layer 2" xmlns="http://www.w3.org/2000/svg" viewBox="0 0 10.62 13.04">
  <defs>
    <style>
      .cls-1 {
        fill: #0071bc;
      }
    </style>
  </defs>
  <g id="Layer_1-2" data-name="Layer 1">
    <g>
      <g>
        <path class="cls-1" d="M4.45,13.04c-.42,0-.75-.34-.75-.75v-7.15c0-.42.34-.75.75-.75s.75.34.75.75v7.15c0,.42-.34.75-.75.75Z"/>
        <path class="cls-1" d="M4.45,12.6c-.17,0-.31-.14-.31-.31v-7.15c0-.17.14-.31.31-.31s.31.14.31.31v7.15c0,.17-.14.31-.31.31Z"/>
      </g>
      <g>
        <g>
          <path class="cls-1" d="M8.23,13.04c-.42,0-.75-.34-.75-.75V1.3c0-.42.34-.75.75-.75s.75.34.75.75v10.99c0,.42-.34.75-.75.75Z"/>
          <path class="cls-1" d="M8.23,12.6c-.17,0-.31-.14-.31-.31V1.3c0-.17.14-.31.31-.31s.31.14.31.31v10.99c0,.17-.14.31-.31.31Z"/>
        </g>
        <g>
          <polygon class="cls-1" points="5.84 2.36 8.23 0 10.62 2.36 9.52 3.39 8.23 2.15 6.94 3.39 5.84 2.36"/>
          <polygon class="cls-1" points="6.47 2.35 6.93 2.78 8.23 1.54 9.53 2.78 9.99 2.35 8.23 .62 6.47 2.35"/>
        </g>
      </g>
      <g>
        <path class="cls-1" d="M.75,13.04c-.42,0-.75-.34-.75-.75v-3.58c0-.42.34-.75.75-.75s.75.34.75.75v3.58c0,.42-.34.75-.75.75Z"/>
        <path class="cls-1" d="M.75,12.6c-.17,0-.31-.14-.31-.31v-3.58c0-.17.14-.31.31-.31s.31.14.31.31v3.58c0,.17-.14.31-.31.31Z"/>
      </g>
    </g>
  </g>
</svg>